<svg xmlns="http://www.w3.org/2000/svg" width="1280" height="800" viewBox="0 0 1280 800"><defs>
<linearGradient id="skin" x1="0" y1="0" x2="1" y2="1"><stop stop-color="#f5d9c7"/><stop offset="1" stop-color="#e9bda4"/></linearGradient>
<linearGradient id="skin2" x1="0" y1="0" x2="1" y2="1"><stop stop-color="#eed4b8"/><stop offset="1" stop-color="#d6aa8c"/></linearGradient>
<linearGradient id="darkhand" x1="0" y1="0" x2="1" y2="1"><stop stop-color="#17333e"/><stop offset="1" stop-color="#0e1b28"/></linearGradient>
<linearGradient id="glove" x1="0" y1="0" x2="0" y2="1"><stop stop-color="#ecebea"/><stop offset="1" stop-color="#bdc8cf"/></linearGradient>
</defs><rect x="0" y="0" width="1280" height="800" rx="0" fill="#f3eee8" stroke="none" stroke-width="1" /><text x="62" y="73" fill="#2f2d2c" font-size="34" font-weight="700" text-anchor="start" font-family="'Segoe UI',Arial,sans-serif" >Handscape</text><text x="64" y="102" fill="#8b8178" font-size="16" font-weight="400" text-anchor="start" font-family="'Segoe UI',Arial,sans-serif" >A tactile sequence, made visible.</text><rect x="1054" y="38" width="162" height="41" rx="20" fill="#e9f2e9" stroke="none" stroke-width="1" /><circle cx="1079" cy="58" r="6" fill="#4a9b72" stroke="none" stroke-width="1" /><text x="1095" y="64" fill="#386f55" font-size="14" font-weight="600" text-anchor="start" font-family="'Segoe UI',Arial,sans-serif" >Connected</text><rect x="43" y="138" width="1194" height="600" rx="29" fill="#fffdf9" stroke="#ebe5dd" stroke-width="1" /><text x="80" y="182" fill="#aa8f7f" font-size="12" font-weight="700" text-anchor="start" font-family="'Segoe UI',Arial,sans-serif" >CHOOSE A FEEL</text><rect x="79" y="203" width="244" height="58" rx="13" fill="#f7e9df" stroke="#ecd1bd" stroke-width="1" /><circle cx="105" cy="232" r="14" fill="#e79772" stroke="none" stroke-width="1" /><text x="136" y="238" fill="#493a35" font-size="18" font-weight="600" text-anchor="start" font-family="'Segoe UI',Arial,sans-serif" >Pulse</text><rect x="79" y="272" width="244" height="58" rx="13" fill="#fbf7f1" stroke="#eae4dc" stroke-width="1" /><circle cx="105" cy="301" r="14" fill="#eedccc" stroke="none" stroke-width="1" /><text x="136" y="307" fill="#493a35" font-size="18" font-weight="500" text-anchor="start" font-family="'Segoe UI',Arial,sans-serif" >Snap</text><rect x="79" y="341" width="244" height="58" rx="13" fill="#fbf7f1" stroke="#eae4dc" stroke-width="1" /><circle cx="105" cy="370" r="14" fill="#eedccc" stroke="none" stroke-width="1" /><text x="136" y="376" fill="#493a35" font-size="18" font-weight="500" text-anchor="start" font-family="'Segoe UI',Arial,sans-serif" >Slow Wave</text><rect x="79" y="410" width="244" height="58" rx="13" fill="#fbf7f1" stroke="#eae4dc" stroke-width="1" /><circle cx="105" cy="439" r="14" fill="#eedccc" stroke="none" stroke-width="1" /><text x="136" y="445" fill="#493a35" font-size="18" font-weight="500" text-anchor="start" font-family="'Segoe UI',Arial,sans-serif" >Fast Wave</text><rect x="79" y="479" width="244" height="58" rx="13" fill="#fbf7f1" stroke="#eae4dc" stroke-width="1" /><circle cx="105" cy="508" r="14" fill="#eedccc" stroke="none" stroke-width="1" /><text x="136" y="514" fill="#493a35" font-size="18" font-weight="500" text-anchor="start" font-family="'Segoe UI',Arial,sans-serif" >Square Wave</text><g transform="translate(377 178) scale(0.970703125)"><g transform="translate(512 0) scale(-1.79 1.79)"><path d="M67.265 203.297c4.001 17.025 13.368 32.77 24.919 43.293 12.779 11.641 27.907 5.285 41.089 9.52 9.405 3.021 17.901 6.807 28.714 3.371 16.238-5.16 38.154-46.172 42.324-61.123 2.029-7.266 45.414-39.908 56.35-47.131 16.418-10.84 8.15-28.834-9.289-19.791 -11.855 6.148-51.602 40.602-57.951 34.059s36.33-73.709 43.051-83.852 c10.572-15.958-10.541-26.846-19.885-13.199-5.885 8.592-44.021 77.211-50.424 74.564 -6.403-2.646 8.253-81.105 10.439-94.6 3.707-22.875-20.402-27.361-24.219-4.039 -2.169 13.25-13.406 91.547-19.883 92.725s-26.693-67.764-31.055-82.861 c-5.918-20.477-27.516-13.882-22.154 6.934 3.877 15.059 23.036 81.072 16.934 103.57 -3.52 12.971-6.746 11.518-16.583-.264-26.474-31.703-55.667-34.346-63.162-17.869 17.558 10.337 45.353 33.576 50.785 56.693z" fill="url(#skin2)" stroke="#b89176" stroke-width="2" stroke-linejoin="round"/></g><circle cx="57" cy="258" r="30" fill="#fffdf8" stroke="#dad5cc" stroke-width="2" /><circle cx="57" cy="258" r="24" fill="#fff6ed" stroke="none" stroke-width="1" /><text x="57" y="264" fill="#6f6254" font-size="20" font-weight="700" text-anchor="middle" font-family="'Segoe UI',Arial,sans-serif" >0</text><circle cx="110" cy="143" r="30" fill="#fffdf8" stroke="#dad5cc" stroke-width="2" /><circle cx="110" cy="143" r="24" fill="#fff6ed" stroke="none" stroke-width="1" /><text x="110" y="149" fill="#6f6254" font-size="20" font-weight="700" text-anchor="middle" font-family="'Segoe UI',Arial,sans-serif" >1</text><circle cx="214" cy="67" r="30" fill="#fffdf8" stroke="#e98367" stroke-width="2" /><circle cx="214" cy="67" r="24" fill="#e98367" stroke="none" stroke-width="1" /><text x="214" y="73" fill="white" font-size="20" font-weight="700" text-anchor="middle" font-family="'Segoe UI',Arial,sans-serif" >2</text><circle cx="352" cy="90" r="30" fill="#fffdf8" stroke="#dad5cc" stroke-width="2" /><circle cx="352" cy="90" r="24" fill="#fff6ed" stroke="none" stroke-width="1" /><text x="352" y="96" fill="#6f6254" font-size="20" font-weight="700" text-anchor="middle" font-family="'Segoe UI',Arial,sans-serif" >3</text><circle cx="462" cy="255" r="30" fill="#fffdf8" stroke="#dad5cc" stroke-width="2" /><circle cx="462" cy="255" r="24" fill="#fff6ed" stroke="none" stroke-width="1" /><text x="462" y="261" fill="#6f6254" font-size="20" font-weight="700" text-anchor="middle" font-family="'Segoe UI',Arial,sans-serif" >4</text></g><text x="983" y="224" fill="#b58068" font-size="13" font-weight="700" text-anchor="start" font-family="'Segoe UI',Arial,sans-serif" >PULSE</text><text x="983" y="268" fill="#3e302c" font-size="29" font-weight="700" text-anchor="start" font-family="'Segoe UI',Arial,sans-serif" >A gentle rise.</text><text x="983" y="302" fill="#3e302c" font-size="29" font-weight="700" text-anchor="start" font-family="'Segoe UI',Arial,sans-serif" >A clear release.</text><text x="983" y="347" fill="#8d8076" font-size="15" font-weight="400" text-anchor="start" font-family="'Segoe UI',Arial,sans-serif" >All five fingertips move</text><text x="983" y="370" fill="#8d8076" font-size="15" font-weight="400" text-anchor="start" font-family="'Segoe UI',Arial,sans-serif" >together in a repeating cycle.</text><polyline points="983.0,452.5 986.0,448.8 989.0,445.3 992.0,442.2 995.0,439.4 998.0,437.3 1001.0,435.8 1004.0,435.0 1007.0,435.0 1010.0,435.8 1013.0,437.3 1016.0,439.4 1019.0,442.2 1022.0,445.3 1025.0,448.8 1028.0,452.5 1031.0,456.2 1034.0,459.7 1037.0,462.8 1040.0,465.6 1043.0,467.7 1046.0,469.2 1049.0,470.0 1052.0,470.0 1055.0,469.2 1058.0,467.7 1061.0,465.6 1064.0,462.8 1067.0,459.7 1070.0,456.2 1073.0,452.5 1076.0,448.8 1079.0,445.3 1082.0,442.2 1085.0,439.4 1088.0,437.3 1091.0,435.8 1094.0,435.0 1097.0,435.0 1100.0,435.8 1103.0,437.3 1106.0,439.4 1109.0,442.2 1112.0,445.3 1115.0,448.8 1118.0,452.5 1121.0,456.2 1124.0,459.7 1127.0,462.8 1130.0,465.6 1133.0,467.7 1136.0,469.2 1139.0,470.0 1142.0,470.0 1145.0,469.2 1148.0,467.7 1151.0,465.6 1154.0,462.8 1157.0,459.7 1160.0,456.2 1163.0,452.5" fill="none" stroke="#e98367" stroke-width="3" stroke-linecap="round" stroke-linejoin="round"/><rect x="983" y="570" width="202" height="58" rx="14" fill="#c65c45" stroke="none" stroke-width="1" /><text x="1084" y="608" fill="white" font-size="18" font-weight="700" text-anchor="middle" font-family="'Segoe UI',Arial,sans-serif" >Run demo  →</text><text x="1084" y="656" fill="#8d8076" font-size="13" font-weight="500" text-anchor="middle" font-family="'Segoe UI',Arial,sans-serif" >COM22 · Rockford</text><text x="80" y="626" fill="#aa8f7f" font-size="12" font-weight="700" text-anchor="start" font-family="'Segoe UI',Arial,sans-serif" >FINGER MAPPING</text><text x="80" y="659" fill="#695e56" font-size="14" font-weight="600" text-anchor="start" font-family="'Segoe UI',Arial,sans-serif" >Pinky</text><rect x="80" y="671" width="104" height="36" rx="9" fill="#fff9f2" stroke="#e8dcd0" stroke-width="1" /><text x="94" y="695" fill="#493a35" font-size="15" font-weight="600" text-anchor="start" font-family="'Segoe UI',Arial,sans-serif" >0</text><path d="M160 684l5 5 5-5" fill="none" stroke="#947d6d" stroke-width="2" stroke-linecap="round" stroke-linejoin="round"/><text x="236" y="659" fill="#695e56" font-size="14" font-weight="600" text-anchor="start" font-family="'Segoe UI',Arial,sans-serif" >Ring</text><rect x="236" y="671" width="104" height="36" rx="9" fill="#fff9f2" stroke="#e8dcd0" stroke-width="1" /><text x="250" y="695" fill="#493a35" font-size="15" font-weight="600" text-anchor="start" font-family="'Segoe UI',Arial,sans-serif" >1</text><path d="M316 684l5 5 5-5" fill="none" stroke="#947d6d" stroke-width="2" stroke-linecap="round" stroke-linejoin="round"/><text x="392" y="659" fill="#695e56" font-size="14" font-weight="600" text-anchor="start" font-family="'Segoe UI',Arial,sans-serif" >Middle</text><rect x="392" y="671" width="104" height="36" rx="9" fill="#fff9f2" stroke="#e8dcd0" stroke-width="1" /><text x="406" y="695" fill="#493a35" font-size="15" font-weight="600" text-anchor="start" font-family="'Segoe UI',Arial,sans-serif" >2</text><path d="M472 684l5 5 5-5" fill="none" stroke="#947d6d" stroke-width="2" stroke-linecap="round" stroke-linejoin="round"/><text x="548" y="659" fill="#695e56" font-size="14" font-weight="600" text-anchor="start" font-family="'Segoe UI',Arial,sans-serif" >Index</text><rect x="548" y="671" width="104" height="36" rx="9" fill="#fff9f2" stroke="#e8dcd0" stroke-width="1" /><text x="562" y="695" fill="#493a35" font-size="15" font-weight="600" text-anchor="start" font-family="'Segoe UI',Arial,sans-serif" >3</text><path d="M628 684l5 5 5-5" fill="none" stroke="#947d6d" stroke-width="2" stroke-linecap="round" stroke-linejoin="round"/><text x="704" y="659" fill="#695e56" font-size="14" font-weight="600" text-anchor="start" font-family="'Segoe UI',Arial,sans-serif" >Thumb</text><rect x="704" y="671" width="104" height="36" rx="9" fill="#fff9f2" stroke="#e8dcd0" stroke-width="1" /><text x="718" y="695" fill="#493a35" font-size="15" font-weight="600" text-anchor="start" font-family="'Segoe UI',Arial,sans-serif" >4</text><path d="M784 684l5 5 5-5" fill="none" stroke="#947d6d" stroke-width="2" stroke-linecap="round" stroke-linejoin="round"/></svg>